<?xml version="1.0" standalone="no"?>
<!DOCTYPE svg PUBLIC "-//W3C//DTD SVG 20010904//EN"
 "http://www.w3.org/TR/2001/REC-SVG-20010904/DTD/svg10.dtd">
<svg version="1.0" xmlns="http://www.w3.org/2000/svg"
 width="300.000000pt" height="300.000000pt" viewBox="0 0 300.000000 300.000000"
 preserveAspectRatio="xMidYMid meet">
<metadata>
Created by potrace 1.10, written by Peter Selinger 2001-2011
</metadata>
<g transform="translate(0.000000,300.000000) scale(0.100000,-0.100000)"
fill="#000000" stroke="none">
<path d="M996 2067 c-7 -35 -21 -314 -20 -414 l1 -92 -60 41 c-118 80 -293
148 -310 121 -4 -5 38 -39 91 -74 117 -77 203 -146 258 -205 37 -41 43 -44 68
-34 15 5 53 10 84 10 64 0 149 -34 193 -76 l26 -25 7 79 c3 44 13 103 22 132
15 49 14 56 -6 123 -53 172 -177 337 -312 415 l-38 21 -4 -22z"/>
<path d="M1928 1961 c-30 -27 -63 -65 -73 -85 -11 -20 -25 -34 -31 -32 -6 2 4
-21 23 -52 89 -148 98 -355 22 -505 -11 -21 -19 -40 -17 -42 2 -2 31 18 65 43
36 27 57 49 51 53 -7 5 -6 23 5 60 37 124 58 278 56 409 -1 95 -18 192 -35
197 -6 2 -36 -18 -66 -46z"/>
<path d="M1547 1902 c-17 -18 -67 -125 -67 -142 0 -6 20 6 45 25 25 19 52 38
61 43 12 7 12 14 3 42 -16 48 -23 53 -42 32z"/>
<path d="M1675 1830 c-135 -58 -230 -156 -277 -288 -25 -73 -35 -247 -16 -278
51 -84 101 -178 119 -226 21 -56 22 -58 59 -58 34 0 44 7 124 98 153 170 222
351 197 512 -12 81 -53 179 -98 235 -15 19 -30 35 -33 35 -3 0 -36 -14 -75
-30z"/>
<path d="M330 1768 c0 -15 151 -275 237 -407 72 -111 160 -203 252 -262 41
-27 77 -47 79 -44 2 2 -8 19 -22 38 -50 66 -125 264 -109 290 3 5 29 7 57 4
28 -3 69 -3 90 1 l39 7 -34 34 c-59 60 -141 124 -236 186 -51 33 -93 65 -93
71 0 13 -164 78 -222 89 -29 6 -38 4 -38 -7z"/>
<path d="M2476 1759 c-121 -42 -240 -138 -325 -264 -69 -102 -68 -98 -24 -79
66 28 174 54 232 54 l56 1 41 62 c23 34 61 99 85 145 37 70 42 84 29 92 -20
13 -26 12 -94 -11z"/>
<path d="M2430 1450 c-25 -5 -78 -14 -119 -20 -134 -19 -284 -95 -435 -221
-75 -63 -204 -199 -214 -227 -1 -4 64 -21 145 -37 108 -22 178 -30 258 -30 86
0 117 -4 143 -18 49 -27 39 -51 -43 -114 -128 -98 -281 -152 -390 -138 l-50 6
24 -25 c30 -32 99 -66 134 -66 14 0 29 -4 32 -10 17 -27 167 3 200 40 16 17
31 20 112 20 106 0 224 23 383 75 58 19 135 42 173 51 43 11 67 21 67 30 0 27
-81 102 -148 137 -108 56 -185 72 -354 72 l-147 0 47 24 c65 33 204 139 354
270 119 105 147 138 134 160 -12 19 -236 34 -306 21z"/>
<path d="M1015 1370 c-38 -10 -100 -19 -137 -19 -79 -1 -79 -1 -45 -94 47
-128 119 -219 218 -276 95 -54 149 -66 301 -65 76 0 141 4 145 7 12 12 -70
199 -119 273 -108 162 -214 213 -363 174z"/>
<path d="M451 1075 c-141 -22 -326 -128 -292 -169 20 -24 329 -172 416 -199
45 -14 114 -29 155 -33 74 -7 75 -6 58 13 -10 11 -21 34 -24 51 -5 26 -3 32
10 32 10 0 26 -4 36 -10 13 -7 32 -3 72 15 29 13 120 41 201 63 l149 38 -62
17 c-34 10 -84 29 -112 43 -27 14 -52 23 -55 21 -2 -3 -46 15 -97 39 -159 75
-308 101 -455 79z"/>
<path d="M1559 943 c-9 -2 -21 -15 -28 -29 -6 -13 -21 -28 -33 -33 -21 -8 -19
-11 36 -69 164 -172 366 -174 604 -5 47 34 61 48 53 56 -7 7 -71 14 -154 18
-92 4 -182 16 -257 32 -119 26 -193 36 -221 30z"/>
<path d="M1408 875 c-3 -3 1 -25 9 -48 11 -32 16 -130 20 -435 l6 -393 31 3
31 3 0 389 0 389 -39 49 c-39 47 -47 53 -58 43z"/>
<path d="M1224 835 c-169 -38 -302 -79 -363 -110 -44 -22 -44 -23 -22 -35 61
-32 137 -50 215 -50 131 0 217 52 305 183 19 27 27 47 19 46 -7 -1 -77 -16
-154 -34z"/>
<path d="M1350 745 c-65 -82 -180 -145 -265 -145 -33 0 -35 -2 -35 -34 0 -67
60 -106 160 -106 53 1 78 13 116 59 l28 33 17 -21 c9 -11 20 -21 23 -21 9 0 7
253 -2 267 -5 8 -19 -2 -42 -32z"/>
<path d="M1540 572 c0 -193 -6 -182 96 -182 73 0 140 26 191 76 48 46 49 58 6
68 -42 10 -128 73 -155 111 -12 19 -36 39 -51 44 -15 6 -41 20 -57 31 l-30 21
0 -169z"/>
</g>
</svg>
