<?xml version="1.0" standalone="no"?>
<!DOCTYPE svg PUBLIC "-//W3C//DTD SVG 20010904//EN"
 "http://www.w3.org/TR/2001/REC-SVG-20010904/DTD/svg10.dtd">
<svg version="1.0" xmlns="http://www.w3.org/2000/svg"
 width="700.000000pt" height="700.000000pt" viewBox="0 0 700.000000 700.000000"
 preserveAspectRatio="xMidYMid meet">
<metadata>
Created by potrace 1.14, written by Peter Selinger 2001-2017
</metadata>
<g transform="translate(0.000000,700.000000) scale(0.100000,-0.100000)"
fill="#000000" stroke="none">
<path d="M2326 4833 c-9 -58 -13 -100 -31 -403 -10 -165 -18 -434 -17 -602 1
-98 -1 -178 -4 -178 -2 0 -51 31 -107 69 -275 184 -587 319 -724 312 -58 -3
-4 -54 197 -191 128 -86 333 -235 360 -261 8 -8 37 -31 63 -53 27 -21 92 -82
145 -136 54 -55 110 -102 124 -105 15 -4 43 -2 63 5 61 20 203 27 280 13 150
-27 276 -88 383 -186 l42 -40 1 44 c1 24 3 53 4 64 1 11 5 54 9 95 9 100 22
175 52 294 30 118 26 161 -32 328 -135 389 -401 736 -705 918 -45 28 -86 50
-90 50 -4 0 -10 -17 -13 -37z"/>
<path d="M4586 4646 c-90 -63 -226 -207 -260 -273 -8 -17 -29 -42 -46 -55
l-31 -24 37 -70 c94 -174 145 -298 160 -390 3 -22 8 -42 10 -46 11 -17 19
-128 19 -263 -1 -208 -26 -326 -114 -520 -22 -49 -36 -91 -31 -93 10 -4 169
110 224 160 33 31 37 39 32 65 -5 19 1 62 14 114 48 185 70 282 84 371 14 85
19 119 31 218 44 345 3 840 -68 840 -8 0 -35 -15 -61 -34z"/>
<path d="M3632 4456 c-13 -7 -29 -22 -35 -33 -40 -68 -103 -197 -123 -250 -22
-58 -22 -63 -6 -63 9 0 70 39 135 86 131 95 131 96 97 187 -29 78 -40 89 -68
73z"/>
<path d="M3960 4291 c-213 -89 -347 -179 -477 -320 -100 -108 -216 -319 -238
-433 -34 -171 -40 -239 -39 -413 0 -139 0 -140 33 -200 18 -33 37 -65 41 -70
30 -37 178 -327 225 -440 48 -118 60 -129 129 -127 73 2 97 16 186 109 207
216 335 390 430 582 51 101 113 274 126 346 4 22 9 49 11 60 12 52 11 276 -2
345 -30 168 -124 395 -207 504 -39 51 -90 106 -97 106 -4 -1 -58 -23 -121 -49z"/>
<path d="M774 4137 c-7 -19 29 -91 170 -336 226 -393 411 -685 521 -821 84
-105 249 -270 335 -336 67 -52 200 -139 258 -168 41 -21 43 -5 6 45 -97 129
-249 478 -269 615 -3 21 -7 44 -9 49 -2 6 0 20 5 32 7 20 12 21 166 18 90 -1
182 3 213 9 l55 11 -75 74 c-151 149 -299 266 -557 440 -84 56 -173 122 -198
146 -61 59 -161 106 -390 184 -141 47 -222 61 -231 38z"/>
<path d="M5840 4125 c-352 -110 -649 -358 -899 -753 -29 -46 -50 -86 -47 -90
4 -3 41 8 84 25 78 32 163 60 198 67 10 2 60 14 109 26 54 13 137 24 210 27
66 2 126 6 132 8 10 3 173 239 173 251 0 1 21 38 46 81 76 127 164 305 164
329 0 28 -35 54 -70 53 -14 0 -59 -11 -100 -24z"/>
<path d="M5755 3392 c-72 -5 -408 -62 -495 -83 -279 -69 -517 -201 -887 -491
-64 -50 -392 -385 -446 -456 -27 -34 -46 -66 -43 -71 10 -15 299 -84 481 -115
171 -29 258 -37 467 -41 185 -4 228 -9 291 -31 50 -18 97 -60 97 -87 0 -25
-31 -76 -62 -102 -255 -217 -521 -354 -781 -400 -79 -14 -250 -14 -322 0 l-30
6 35 -36 c93 -98 216 -163 340 -179 25 -4 59 -15 75 -26 75 -50 356 8 457 94
47 40 68 44 288 51 80 3 161 7 180 10 19 3 53 7 75 10 140 17 345 68 605 150
180 57 302 93 390 116 106 28 169 54 176 73 22 58 -217 266 -410 357 -230 107
-384 132 -843 133 -132 1 -239 4 -237 8 2 3 36 23 75 43 223 115 749 532 1041
826 163 163 160 192 -22 219 -117 17 -396 29 -495 22z"/>
<path d="M2528 3225 c-2 -2 -23 -5 -48 -8 -25 -3 -79 -12 -120 -22 -41 -9 -88
-19 -105 -21 -16 -3 -41 -7 -55 -10 -14 -2 -79 -7 -145 -10 -141 -7 -164 -17
-159 -66 3 -30 21 -88 44 -143 4 -11 14 -36 21 -55 26 -72 97 -208 147 -280
107 -155 246 -273 429 -364 179 -89 287 -108 608 -107 185 0 330 7 345 16 22
13 -53 211 -160 426 -76 153 -101 194 -175 294 -169 227 -344 338 -552 349
-40 2 -73 2 -75 1z"/>
<path d="M1167 2524 c-1 -1 -31 -5 -67 -9 -304 -33 -770 -276 -735 -384 8 -27
113 -89 335 -198 437 -215 648 -297 865 -339 22 -4 42 -8 45 -9 3 -1 41 -5 85
-9 44 -4 97 -9 117 -12 45 -5 54 6 29 37 -36 47 -58 104 -57 149 1 51 15 57
76 32 55 -21 87 -17 205 28 112 43 387 129 465 145 32 7 335 87 337 89 2 1
-43 15 -100 31 -101 28 -209 68 -319 119 -31 15 -81 33 -112 41 -30 8 -122 44
-203 81 -265 119 -442 172 -663 200 -49 6 -298 13 -303 8z"/>
<path d="M3632 2194 c-16 -6 -40 -29 -52 -50 -26 -43 -66 -81 -92 -90 -38 -12
-17 -47 95 -158 224 -226 416 -311 677 -301 172 6 333 55 520 157 181 99 357
234 334 257 -17 18 -141 35 -344 46 -115 7 -223 15 -270 20 -67 8 -185 25
-240 35 -30 6 -68 13 -85 15 -16 3 -37 8 -45 10 -33 10 -282 55 -337 61 -105
11 -131 11 -161 -2z"/>
<path d="M3286 2041 c-6 -9 -3 -26 14 -91 35 -130 42 -287 56 -1200 9 -672 11
-740 17 -747 3 -3 36 -2 72 2 l65 7 0 910 0 910 -62 75 c-105 129 -145 162
-162 134z"/>
<path d="M3150 2013 c-431 -90 -798 -187 -1010 -266 -97 -37 -205 -91 -216
-108 -16 -27 255 -122 388 -136 311 -33 512 30 698 217 94 96 218 273 208 299
-2 4 -32 2 -68 -6z"/>
<path d="M3177 1768 c-27 -29 -70 -75 -96 -102 -142 -149 -368 -259 -546 -265
-81 -3 -88 -11 -83 -91 6 -76 30 -121 89 -163 72 -52 150 -71 284 -70 133 1
172 23 304 173 l30 35 45 -50 c24 -27 48 -46 53 -42 8 9 8 463 0 552 -3 28 -5
56 -6 63 -2 24 -25 11 -74 -40z"/>
<path d="M3594 1367 c3 -479 -5 -460 206 -456 189 4 324 52 444 161 118 107
130 144 53 168 -140 45 -264 136 -426 314 -14 15 -53 42 -86 58 -33 17 -90 50
-126 73 l-67 43 2 -361z"/>
</g>
</svg>
